<mxfile host="app.diagrams.net" modified="2021-09-30T07:47:07.576Z" agent="5.0 (Windows NT 10.0; Win64; x64) AppleWebKit/537.36 (KHTML, like Gecko) Chrome/93.0.4577.82 Safari/537.36" etag="vcKCidgD_Y6u0ccQGPkN" version="15.3.8" type="github">
  <diagram id="DK9Ftc49tO2zXTOu1-Id" name="Page-1">
    <mxGraphModel dx="1422" dy="794" grid="1" gridSize="10" guides="1" tooltips="1" connect="1" arrows="1" fold="1" page="1" pageScale="1" pageWidth="827" pageHeight="1169" math="0" shadow="0">
      <root>
        <mxCell id="0" />
        <mxCell id="1" parent="0" />
        <mxCell id="WbI93CJAJc5Vlqem863o-1" value="Dog exists" style="rounded=1;whiteSpace=wrap;html=1;glass=0;shadow=0;" vertex="1" parent="1">
          <mxGeometry x="350" y="380" width="120" height="60" as="geometry" />
        </mxCell>
        <mxCell id="WbI93CJAJc5Vlqem863o-6" style="edgeStyle=orthogonalEdgeStyle;rounded=0;orthogonalLoop=1;jettySize=auto;html=1;entryX=1;entryY=0.5;entryDx=0;entryDy=0;" edge="1" parent="1" source="WbI93CJAJc5Vlqem863o-2" target="WbI93CJAJc5Vlqem863o-5">
          <mxGeometry relative="1" as="geometry" />
        </mxCell>
        <mxCell id="WbI93CJAJc5Vlqem863o-9" style="edgeStyle=orthogonalEdgeStyle;rounded=0;orthogonalLoop=1;jettySize=auto;html=1;entryX=0;entryY=0.5;entryDx=0;entryDy=0;" edge="1" parent="1" source="WbI93CJAJc5Vlqem863o-2" target="WbI93CJAJc5Vlqem863o-4">
          <mxGeometry relative="1" as="geometry" />
        </mxCell>
        <mxCell id="WbI93CJAJc5Vlqem863o-2" value="What the dog doing?" style="rhombus;whiteSpace=wrap;html=1;" vertex="1" parent="1">
          <mxGeometry x="320" y="500" width="180" height="80" as="geometry" />
        </mxCell>
        <mxCell id="WbI93CJAJc5Vlqem863o-3" value="" style="endArrow=classic;html=1;entryX=0.5;entryY=0;entryDx=0;entryDy=0;exitX=0.5;exitY=1;exitDx=0;exitDy=0;" edge="1" parent="1" source="WbI93CJAJc5Vlqem863o-1" target="WbI93CJAJc5Vlqem863o-2">
          <mxGeometry width="50" height="50" relative="1" as="geometry">
            <mxPoint x="390" y="430" as="sourcePoint" />
            <mxPoint x="440" y="380" as="targetPoint" />
            <Array as="points">
              <mxPoint x="410" y="470" />
            </Array>
          </mxGeometry>
        </mxCell>
        <mxCell id="WbI93CJAJc5Vlqem863o-14" style="edgeStyle=orthogonalEdgeStyle;rounded=0;orthogonalLoop=1;jettySize=auto;html=1;exitX=0.5;exitY=1;exitDx=0;exitDy=0;entryX=0.5;entryY=0;entryDx=0;entryDy=0;" edge="1" parent="1" source="WbI93CJAJc5Vlqem863o-4" target="WbI93CJAJc5Vlqem863o-13">
          <mxGeometry relative="1" as="geometry" />
        </mxCell>
        <mxCell id="WbI93CJAJc5Vlqem863o-4" value="Commit genocide" style="rounded=0;whiteSpace=wrap;html=1;" vertex="1" parent="1">
          <mxGeometry x="590" y="510" width="120" height="60" as="geometry" />
        </mxCell>
        <mxCell id="WbI93CJAJc5Vlqem863o-18" style="edgeStyle=orthogonalEdgeStyle;rounded=0;orthogonalLoop=1;jettySize=auto;html=1;exitX=0.5;exitY=1;exitDx=0;exitDy=0;entryX=0.5;entryY=0;entryDx=0;entryDy=0;" edge="1" parent="1" source="WbI93CJAJc5Vlqem863o-5" target="WbI93CJAJc5Vlqem863o-17">
          <mxGeometry relative="1" as="geometry" />
        </mxCell>
        <mxCell id="WbI93CJAJc5Vlqem863o-5" value="Science goes boom and stuff (time travel and big cool things)" style="rounded=0;whiteSpace=wrap;html=1;" vertex="1" parent="1">
          <mxGeometry x="110" y="510" width="120" height="60" as="geometry" />
        </mxCell>
        <mxCell id="WbI93CJAJc5Vlqem863o-7" value="Yes" style="text;html=1;strokeColor=none;fillColor=none;align=center;verticalAlign=middle;whiteSpace=wrap;rounded=0;" vertex="1" parent="1">
          <mxGeometry x="260" y="510" width="40" height="20" as="geometry" />
        </mxCell>
        <mxCell id="WbI93CJAJc5Vlqem863o-10" value="&lt;span style=&quot;color: rgb(0 , 0 , 0) ; font-family: &amp;#34;helvetica&amp;#34; ; font-size: 12px ; font-style: normal ; font-weight: 400 ; letter-spacing: normal ; text-indent: 0px ; text-transform: none ; word-spacing: 0px ; background-color: rgb(248 , 249 , 250) ; display: inline ; float: none&quot;&gt;No&lt;/span&gt;" style="text;whiteSpace=wrap;html=1;align=center;" vertex="1" parent="1">
          <mxGeometry x="520" y="510" width="40" height="20" as="geometry" />
        </mxCell>
        <mxCell id="WbI93CJAJc5Vlqem863o-16" style="edgeStyle=orthogonalEdgeStyle;rounded=0;orthogonalLoop=1;jettySize=auto;html=1;" edge="1" parent="1" source="WbI93CJAJc5Vlqem863o-13">
          <mxGeometry relative="1" as="geometry">
            <mxPoint x="410" y="470" as="targetPoint" />
            <Array as="points">
              <mxPoint x="650" y="740" />
              <mxPoint x="750" y="740" />
              <mxPoint x="750" y="470" />
            </Array>
          </mxGeometry>
        </mxCell>
        <mxCell id="WbI93CJAJc5Vlqem863o-13" value="Start new civilization" style="rounded=0;whiteSpace=wrap;html=1;shadow=0;glass=0;" vertex="1" parent="1">
          <mxGeometry x="590" y="650" width="120" height="60" as="geometry" />
        </mxCell>
        <mxCell id="WbI93CJAJc5Vlqem863o-17" value="Good ending" style="rounded=0;whiteSpace=wrap;html=1;" vertex="1" parent="1">
          <mxGeometry x="110" y="650" width="120" height="60" as="geometry" />
        </mxCell>
      </root>
    </mxGraphModel>
  </diagram>
</mxfile>
